<svg width="303" height="79" viewBox="0 0 303 79" fill="none" xmlns="http://www.w3.org/2000/svg">
<rect width="302.457" height="79" rx="13" fill="#264653"/>
<g filter="url(#filter0_dd_26_8)">
<path d="M56.254 56.4466C56.4466 61.7755 57.0887 65.8203 58.1801 68.581C56.0614 70.4429 53.6538 71.3739 50.9573 71.3739C48.9028 71.3739 47.2014 70.796 45.8531 69.6404C44.5048 68.4847 43.8307 66.9117 43.8307 64.9215V40.3637C43.7665 35.1633 43.2208 31.3432 42.1935 28.9035C41.1663 26.4637 39.2723 25.2439 36.5115 25.2439C33.4298 25.2439 30.9259 27.1379 28.9998 30.9259C27.0737 34.6496 26.1106 40.1069 26.1106 47.2977C26.1106 54.36 26.2069 59.1111 26.3995 61.5508C26.5921 63.9263 27.17 66.3018 28.133 68.6773C27.491 69.3194 26.5279 69.9293 25.2439 70.5071C24.024 71.085 22.6437 71.3739 21.1028 71.3739C18.9199 71.3739 17.1543 70.7318 15.806 69.4478C14.4577 68.1637 13.7836 66.4623 13.7836 64.3436V33.4298C13.7194 31.6321 13.4947 30.348 13.1095 29.5776C12.7243 28.743 12.0822 28.3256 11.1834 28.3256C9.96352 28.3256 9.12888 28.7109 8.67946 29.4813C7.90902 28.1972 7.5238 26.8811 7.5238 25.5328C7.5238 23.6067 8.16584 22.0658 9.4499 20.9102C10.7982 19.6903 12.6601 19.0804 15.0356 19.0804C17.9889 19.0804 20.3002 20.0434 21.9695 21.9695C23.703 23.8314 24.6018 26.6564 24.6661 30.4443C27.4268 22.8042 32.7878 18.9841 40.7489 18.9841C46.0136 18.9841 49.8979 20.6213 52.4018 23.8956C54.97 27.1058 56.254 31.9531 56.254 38.4376V56.4466Z" fill="#F4A261"/>
<path d="M107.386 56.1577C108.413 56.6071 108.927 57.4739 108.927 58.7579C108.927 59.5926 108.702 60.5556 108.253 61.6471C107.033 64.7288 104.818 67.1365 101.608 68.8699C98.3974 70.5392 94.5131 71.3739 89.9547 71.3739C82.5071 71.3739 76.6004 69.0947 72.2346 64.5362C67.8688 59.9136 65.6859 53.4291 65.6859 45.0827C65.6859 36.9289 67.8046 30.5406 72.042 25.918C76.2794 21.2954 82.3145 18.9841 90.1473 18.9841C95.8614 18.9841 100.548 20.2681 104.208 22.8363C107.867 25.3402 109.697 28.9035 109.697 33.5261C109.697 38.2129 107.803 41.8404 104.015 44.4085C100.227 46.9767 95.1551 48.2607 88.799 48.2607C84.69 48.2607 81.5119 48.1323 79.2648 47.8755C79.7143 53.4612 81.1267 57.4739 83.5022 59.9136C85.942 62.3533 89.2805 63.5732 93.5179 63.5732C96.9207 63.5732 99.8098 62.899 102.185 61.5508C104.561 60.2025 106.294 58.4048 107.386 56.1577ZM89.6658 23.3178C86.3272 23.3178 83.727 25.1155 81.8651 28.7109C80.0032 32.242 79.0722 37.1536 79.0722 43.4455V43.5418L82.3466 43.6381C86.3272 43.6381 89.6336 42.8035 92.266 41.1342C94.9625 39.4649 96.3108 36.2547 96.3108 31.5037C96.3108 26.0464 94.0958 23.3178 89.6658 23.3178Z" fill="#F4A261"/>
<path d="M140.456 71.3739C132.752 71.3739 126.781 69.0947 122.543 64.5362C118.37 59.9778 116.283 53.4933 116.283 45.0827C116.283 36.9289 118.402 30.5406 122.64 25.918C126.941 21.2954 133.008 18.9841 140.841 18.9841C146.555 18.9841 150.921 20.1718 153.939 22.5473C156.956 24.8587 158.465 27.7799 158.465 31.3111C158.465 33.8792 157.662 35.9337 156.057 37.4746C154.452 39.0155 152.366 39.7859 149.798 39.7859C148.513 39.7859 147.262 39.5933 146.042 39.2081C144.886 38.8229 143.955 38.245 143.249 37.4746C145.111 35.9979 146.042 33.5903 146.042 30.2517C146.042 25.6291 143.955 23.3178 139.782 23.3178C136.636 23.3178 134.164 25.0513 132.366 28.5182C130.569 31.9852 129.67 36.8647 129.67 43.1566C129.67 56.7676 134.517 63.5732 144.212 63.5732C147.55 63.5732 150.375 62.7706 152.687 61.1656C155.062 59.4963 156.603 57.3455 157.309 54.7131C158.401 55.1626 158.947 56.2219 158.947 57.8912C158.947 58.7258 158.818 59.6247 158.561 60.5877C157.598 63.9905 155.512 66.6549 152.301 68.581C149.091 70.4429 145.143 71.3739 140.456 71.3739Z" fill="#F4A261"/>
<path d="M182.803 20.4286C184.151 20.4286 186.27 20.3965 189.159 20.3323C192.112 20.2039 193.782 20.1076 194.167 20.0434L194.071 23.0289C194.006 23.9919 193.685 24.7624 193.108 25.3402C192.53 25.8538 191.791 26.1106 190.893 26.1106H182.321V28.9998V56.6392C182.321 60.042 183.798 61.7434 186.751 61.7434C187.522 61.7434 188.292 61.6471 189.063 61.4545C189.897 61.1977 190.411 60.8445 190.604 60.3951C191.438 61.4866 191.856 62.8027 191.856 64.3436C191.856 66.3339 190.925 67.939 189.063 69.1589C187.201 70.3787 184.729 70.9886 181.647 70.9886C177.924 70.9886 175.034 69.8009 172.98 67.4254C170.925 65.0499 169.898 61.8076 169.898 57.6986V26.1106H168.55C165.918 26.1106 163.991 26.2069 162.772 26.3995L162.868 23.4141C162.932 22.451 163.253 21.7127 163.831 21.1991C164.473 20.6855 165.243 20.4286 166.142 20.4286H169.898V13.9762C169.898 11.9859 170.572 10.4129 171.921 9.25729C173.269 8.10163 175.002 7.5238 177.121 7.5238C178.662 7.5238 180.042 7.81272 181.262 8.39055C182.482 8.96838 183.445 9.61041 184.151 10.3166C183.317 13.591 182.771 16.9617 182.514 20.4286H182.803Z" fill="#F4A261"/>
<path d="M248.727 60.3951C249.562 61.615 249.979 62.9311 249.979 64.3436C249.979 66.2055 249.177 67.7785 247.572 69.0626C245.967 70.3466 243.816 70.9886 241.119 70.9886C238.038 70.9886 235.63 69.9935 233.896 68.0032C232.163 65.9487 231.168 62.6422 230.911 58.0838C229.113 62.0002 226.609 65.1462 223.399 67.5217C220.189 69.833 216.465 70.9886 212.228 70.9886C208.44 70.9886 205.39 69.9935 203.079 68.0032C200.768 66.0129 199.612 63.2201 199.612 59.6247C199.612 55.5157 201.185 52.145 204.331 49.5127C207.477 46.8804 211.457 44.858 216.273 43.4455C220.446 42.2898 225.036 41.6478 230.044 41.5194V39.1118C230.044 33.6545 229.402 29.6418 228.118 27.0737C226.834 24.5055 224.619 23.2215 221.473 23.2215C219.419 23.2215 217.749 23.8314 216.465 25.0513C215.181 26.2069 214.539 28.0046 214.539 30.4443C214.539 33.8471 215.695 36.2226 218.006 37.5709C217.3 38.2771 216.337 38.8229 215.117 39.2081C213.961 39.5933 212.709 39.7859 211.361 39.7859C208.408 39.7859 206.064 38.9513 204.331 37.282C202.662 35.6127 201.827 33.494 201.827 30.9259C201.827 27.1379 203.657 24.2166 207.316 22.1621C210.976 20.0434 215.952 18.9841 222.244 18.9841C229.37 18.9841 234.571 20.6213 237.845 23.8956C241.183 27.17 242.853 32.4988 242.853 39.8822V56.6392C242.853 60.042 243.912 61.7434 246.031 61.7434C246.48 61.7434 246.962 61.6471 247.475 61.4545C247.989 61.1977 248.406 60.8445 248.727 60.3951ZM218.006 62.899C219.868 62.899 221.762 62.1286 223.688 60.5877C225.614 59.0469 227.219 56.9603 228.503 54.3279C229.787 51.6314 230.429 48.7101 230.429 45.5642C225.357 45.5642 221.569 46.2704 219.065 47.6829C217.268 48.5817 215.823 49.8016 214.732 51.3425C213.705 52.8834 213.191 54.6489 213.191 56.6392C213.191 58.3727 213.576 59.8494 214.347 61.0693C215.181 62.2891 216.401 62.899 218.006 62.899Z" fill="#F4A261"/>
<path d="M281.994 18.9841C285.653 18.9841 288.607 19.9792 290.854 21.9695C293.165 23.8956 294.321 26.56 294.321 29.9628C294.321 32.4025 293.583 34.4249 292.106 36.03C290.629 37.6351 288.767 38.4697 286.52 38.5339C283.952 38.5339 282.058 37.8598 280.838 36.5115C281.544 35.3559 282.026 34.2965 282.283 33.3335C282.54 32.3704 282.668 31.2469 282.668 29.9628C282.668 28.2935 282.315 27.0416 281.609 26.2069C280.902 25.3081 279.843 24.8587 278.431 24.8587C276.055 24.8587 274.193 26.7527 272.845 30.5406C271.497 34.2644 270.823 39.8501 270.823 47.2977C270.823 54.1674 270.919 58.8221 271.111 61.2619C271.304 63.6374 271.882 65.9808 272.845 68.2921C272.139 68.9983 271.176 69.6083 269.956 70.1219C268.736 70.6997 267.323 71.0208 265.718 71.085C263.728 71.085 262.027 70.4429 260.614 69.1589C259.202 67.8748 258.496 66.1413 258.496 63.9584V33.4298C258.496 31.6321 258.271 30.348 257.821 29.5776C257.436 28.743 256.794 28.3256 255.895 28.3256C254.675 28.3256 253.841 28.7109 253.391 29.4813C252.621 28.1972 252.236 26.8811 252.236 25.5328C252.236 23.6067 252.878 22.0658 254.162 20.9102C255.51 19.6903 257.372 19.0804 259.747 19.0804C262.572 19.0804 264.82 19.9471 266.489 21.6806C268.158 23.4141 269.121 26.0143 269.378 29.4813C271.561 22.4831 275.766 18.9841 281.994 18.9841Z" fill="#F4A261"/>
</g>
<defs>
<filter id="filter0_dd_26_8" x="4.5238" y="7.5238" width="292.797" height="63.8501" filterUnits="userSpaceOnUse" color-interpolation-filters="sRGB">
<feFlood flood-opacity="0" result="BackgroundImageFix"/>
<feColorMatrix in="SourceAlpha" type="matrix" values="0 0 0 0 0 0 0 0 0 0 0 0 0 0 0 0 0 0 127 0" result="hardAlpha"/>
<feOffset dx="3"/>
<feComposite in2="hardAlpha" operator="out"/>
<feColorMatrix type="matrix" values="0 0 0 0 0.905882 0 0 0 0 0.435294 0 0 0 0 0.317647 0 0 0 1 0"/>
<feBlend mode="normal" in2="BackgroundImageFix" result="effect1_dropShadow_26_8"/>
<feColorMatrix in="SourceAlpha" type="matrix" values="0 0 0 0 0 0 0 0 0 0 0 0 0 0 0 0 0 0 127 0" result="hardAlpha"/>
<feOffset dx="-3"/>
<feComposite in2="hardAlpha" operator="out"/>
<feColorMatrix type="matrix" values="0 0 0 0 0.913725 0 0 0 0 0.768627 0 0 0 0 0.415686 0 0 0 1 0"/>
<feBlend mode="normal" in2="effect1_dropShadow_26_8" result="effect2_dropShadow_26_8"/>
<feBlend mode="normal" in="SourceGraphic" in2="effect2_dropShadow_26_8" result="shape"/>
</filter>
</defs>
</svg>
