<svg xmlns="http://www.w3.org/2000/svg" width="414" height="108" fill="none" viewBox="0 0 414 108"><rect width="414" height="108" fill="#264653" rx="13"/><g filter="url(#filter0_dd_26_8)"><path fill="#F4A261" d="M77 77.1675C77.2636 84.4526 78.1424 89.9822 79.6364 93.7563C76.7363 96.3017 73.4408 97.5744 69.7498 97.5744C66.9376 97.5744 64.6088 96.7845 62.7633 95.2046C60.9178 93.6247 59.9951 91.4743 59.9951 88.7534V55.1808C59.9072 48.0713 59.1602 42.8489 57.7541 39.5136C56.348 36.1783 53.7555 34.5106 49.9767 34.5106C45.7584 34.5106 42.3311 37.0999 39.6946 42.2784C37.0582 47.3691 35.74 54.8297 35.74 64.6601C35.74 74.315 35.8718 80.8101 36.1355 84.1454C36.3991 87.3929 37.19 90.6405 38.5083 93.888C37.6295 94.7657 36.3112 95.5995 34.5536 96.3895C32.8839 97.1794 30.9945 97.5744 28.8853 97.5744C25.8974 97.5744 23.4807 96.6967 21.6352 94.9413C19.7897 93.1858 18.8669 90.8599 18.8669 87.9634V45.7015C18.7791 43.2439 18.4715 41.4885 17.9442 40.4352C17.4169 39.2942 16.5381 38.7237 15.3078 38.7237C13.638 38.7237 12.4956 39.2503 11.8804 40.3035C10.8259 38.5481 10.2986 36.7488 10.2986 34.9056C10.2986 32.2725 11.1774 30.1659 12.935 28.586C14.7805 26.9184 17.329 26.0846 20.5806 26.0846C24.6231 26.0846 27.7868 27.4011 30.0717 30.0343C32.4445 32.5797 33.6748 36.4416 33.7627 41.6201C37.5416 31.1753 44.8796 25.9529 55.7768 25.9529C62.983 25.9529 68.2998 28.1911 71.7271 32.6674C75.2423 37.056 77 43.6827 77 52.5477V77.1675Z"/><path fill="#F4A261" d="M146.989 76.7726C148.395 77.387 149.098 78.5719 149.098 80.3273C149.098 81.4683 148.79 82.7849 148.175 84.277C146.505 88.4901 143.473 91.7815 139.079 94.1513C134.685 96.4334 129.369 97.5744 123.129 97.5744C112.935 97.5744 104.85 94.4585 98.874 88.2267C92.8981 81.9072 89.9102 73.0423 89.9102 61.632C89.9102 50.485 92.8102 41.7518 98.6103 35.4322C104.41 29.1127 112.671 25.9529 123.393 25.9529C131.214 25.9529 137.629 27.7083 142.639 31.2192C147.648 34.6423 150.152 39.5136 150.152 45.8331C150.152 52.2405 147.56 57.1995 142.375 60.7104C137.19 64.2213 130.247 65.9767 121.547 65.9767C115.923 65.9767 111.573 65.8011 108.497 65.4501C109.112 73.0862 111.045 78.5719 114.297 81.9072C117.636 85.2425 122.206 86.9102 128.006 86.9102C132.664 86.9102 136.619 85.9886 139.87 84.1454C143.122 82.3022 145.495 79.8446 146.989 76.7726ZM122.734 31.8775C118.164 31.8775 114.605 34.3351 112.056 39.2503C109.508 44.0777 108.233 50.7922 108.233 59.3938V59.5255L112.715 59.6571C118.164 59.6571 122.69 58.5161 126.293 56.2341C129.984 53.952 131.829 49.5634 131.829 43.0683C131.829 35.6078 128.797 31.8775 122.734 31.8775Z"/><path fill="#F4A261" d="M192.255 97.5744C181.709 97.5744 173.536 94.4585 167.736 88.2267C162.024 81.995 159.168 73.1301 159.168 61.632C159.168 50.485 162.068 41.7518 167.868 35.4322C173.756 29.1127 182.061 25.9529 192.782 25.9529C200.603 25.9529 206.579 27.5767 210.71 30.8242C214.84 33.984 216.905 37.9776 216.905 42.805C216.905 46.3159 215.807 49.1246 213.61 51.2311C211.413 53.3376 208.557 54.3909 205.041 54.3909C203.284 54.3909 201.57 54.1275 199.9 53.6009C198.318 53.0743 197.044 52.2843 196.077 51.2311C198.626 49.2123 199.9 45.9209 199.9 41.3568C199.9 35.0373 197.044 31.8775 191.332 31.8775C187.026 31.8775 183.642 34.2473 181.182 38.987C178.721 43.7266 177.491 50.3973 177.491 58.9989C177.491 77.6064 184.126 86.9102 197.396 86.9102C201.965 86.9102 205.832 85.813 208.996 83.6187C212.248 81.3367 214.357 78.3963 215.323 74.7977C216.817 75.4121 217.564 76.8603 217.564 79.1424C217.564 80.2834 217.389 81.5122 217.037 82.8288C215.719 87.4807 212.863 91.1232 208.469 93.7563C204.075 96.3017 198.67 97.5744 192.255 97.5744Z"/><path fill="#F4A261" d="M250.219 27.9278C252.064 27.9278 254.964 27.8839 258.919 27.7961C262.961 27.6206 265.246 27.4889 265.774 27.4011L265.642 31.4825C265.554 32.7991 265.115 33.8523 264.324 34.6423C263.533 35.3445 262.522 35.6955 261.292 35.6955H249.56V39.6453V77.4309C249.56 82.0827 251.581 84.4087 255.623 84.4087C256.678 84.4087 257.733 84.277 258.787 84.0137C259.93 83.6626 260.633 83.1799 260.896 82.5655C262.039 84.0576 262.61 85.8569 262.61 87.9634C262.61 90.6843 261.336 92.8786 258.787 94.5463C256.239 96.214 252.855 97.0478 248.637 97.0478C243.54 97.0478 239.585 95.424 236.773 92.1765C233.961 88.9289 232.555 84.4965 232.555 78.8791V35.6955H230.709C227.106 35.6955 224.47 35.8272 222.8 36.0905L222.932 32.0091C223.02 30.6926 223.459 29.6832 224.25 28.981C225.129 28.2789 226.183 27.9278 227.414 27.9278H232.555V19.1067C232.555 16.3858 233.478 14.2354 235.323 12.6555C237.169 11.0756 239.541 10.2857 242.441 10.2857C244.55 10.2857 246.44 10.6807 248.11 11.4706C249.779 12.2606 251.098 13.1383 252.064 14.1038C250.922 18.5801 250.175 23.1881 249.823 27.9278H250.219Z"/><path fill="#F4A261" d="M340.455 82.5655C341.598 84.2331 342.169 86.0325 342.169 87.9634C342.169 90.5088 341.07 92.6592 338.873 94.4146C336.676 96.1701 333.732 97.0478 330.041 97.0478C325.823 97.0478 322.528 95.6873 320.155 92.9664C317.782 90.1577 316.42 85.6375 316.068 79.4057C313.608 84.7598 310.18 89.0606 305.786 92.3081C301.392 95.4679 296.295 97.0478 290.495 97.0478C285.31 97.0478 281.136 95.6873 277.972 92.9664C274.809 90.2455 273.227 86.4274 273.227 81.5122C273.227 75.8949 275.38 71.2869 279.686 67.6882C283.992 64.0896 289.441 61.3248 296.032 59.3938C301.744 57.8139 308.027 56.9362 314.882 56.7607V53.4693C314.882 46.0087 314.003 40.523 312.246 37.0121C310.488 33.5013 307.456 31.7458 303.15 31.7458C300.338 31.7458 298.053 32.5797 296.295 34.2473C294.538 35.8272 293.659 38.2848 293.659 41.6201C293.659 46.272 295.241 49.5195 298.404 51.3627C297.438 52.3282 296.12 53.0743 294.45 53.6009C292.868 54.1275 291.154 54.3909 289.309 54.3909C285.266 54.3909 282.059 53.2498 279.686 50.9678C277.401 48.6857 276.259 45.7893 276.259 42.2784C276.259 37.0999 278.763 33.1063 283.772 30.2976C288.782 27.4011 295.592 25.9529 304.205 25.9529C313.959 25.9529 321.078 28.1911 325.56 32.6674C330.129 37.1438 332.414 44.4288 332.414 54.5225V77.4309C332.414 82.0827 333.864 84.4087 336.764 84.4087C337.38 84.4087 338.039 84.277 338.742 84.0137C339.445 83.6626 340.016 83.1799 340.455 82.5655ZM298.404 85.9886C300.953 85.9886 303.545 84.9353 306.182 82.8288C308.818 80.7223 311.015 77.8697 312.773 74.2711C314.531 70.5847 315.409 66.5911 315.409 62.2903C308.467 62.2903 303.282 63.2558 299.854 65.1867C297.394 66.4155 295.417 68.0832 293.923 70.1897C292.516 72.2962 291.813 74.7099 291.813 77.4309C291.813 79.8007 292.341 81.8194 293.395 83.4871C294.538 85.1547 296.207 85.9886 298.404 85.9886Z"/><path fill="#F4A261" d="M385.99 25.9529C390.999 25.9529 395.042 27.3134 398.118 30.0343C401.281 32.6674 402.863 36.3099 402.863 40.9618C402.863 44.2971 401.853 47.0619 399.831 49.2562C397.81 51.4505 395.262 52.5915 392.186 52.6793C388.671 52.6793 386.078 51.7577 384.408 49.9145C385.375 48.3346 386.034 46.8864 386.386 45.5698C386.737 44.2532 386.913 42.7173 386.913 40.9618C386.913 38.6798 386.43 36.9682 385.463 35.8272C384.496 34.5984 383.046 33.984 381.113 33.984C377.861 33.984 375.313 36.5733 373.467 41.7518C371.622 46.8425 370.699 54.4786 370.699 64.6601C370.699 74.0517 370.831 80.4151 371.094 83.7504C371.358 86.9979 372.149 90.2016 373.467 93.3614C372.501 94.3269 371.182 95.1607 369.513 95.8629C367.843 96.6528 365.909 97.0917 363.712 97.1794C360.988 97.1794 358.659 96.3017 356.726 94.5463C354.793 92.7909 353.826 90.421 353.826 87.4368V45.7015C353.826 43.2439 353.518 41.4885 352.903 40.4352C352.376 39.2942 351.497 38.7237 350.267 38.7237C348.597 38.7237 347.455 39.2503 346.839 40.3035C345.785 38.5481 345.258 36.7488 345.258 34.9056C345.258 32.2725 346.136 30.1659 347.894 28.586C349.739 26.9184 352.288 26.0846 355.54 26.0846C359.406 26.0846 362.482 27.2695 364.767 29.6393C367.052 32.0091 368.37 35.5639 368.722 40.3035C371.71 30.7365 377.466 25.9529 385.99 25.9529Z"/></g><defs><filter id="filter0_dd_26_8" width="398.565" height="87.289" x="7.299" y="10.286" color-interpolation-filters="sRGB" filterUnits="userSpaceOnUse"><feFlood flood-opacity="0" result="BackgroundImageFix"/><feColorMatrix in="SourceAlpha" result="hardAlpha" type="matrix" values="0 0 0 0 0 0 0 0 0 0 0 0 0 0 0 0 0 0 127 0"/><feOffset dx="3"/><feComposite in2="hardAlpha" operator="out"/><feColorMatrix type="matrix" values="0 0 0 0 0.905882 0 0 0 0 0.435294 0 0 0 0 0.317647 0 0 0 1 0"/><feBlend in2="BackgroundImageFix" mode="normal" result="effect1_dropShadow_26_8"/><feColorMatrix in="SourceAlpha" result="hardAlpha" type="matrix" values="0 0 0 0 0 0 0 0 0 0 0 0 0 0 0 0 0 0 127 0"/><feOffset dx="-3"/><feComposite in2="hardAlpha" operator="out"/><feColorMatrix type="matrix" values="0 0 0 0 0.913725 0 0 0 0 0.768627 0 0 0 0 0.415686 0 0 0 1 0"/><feBlend in2="effect1_dropShadow_26_8" mode="normal" result="effect2_dropShadow_26_8"/><feBlend in="SourceGraphic" in2="effect2_dropShadow_26_8" mode="normal" result="shape"/></filter></defs></svg>