<svg width="624" height="190" viewBox="0 0 624 190" fill="none" xmlns="http://www.w3.org/2000/svg">
<rect width="624" height="190" rx="13" fill="#264653"/>
<path d="M127.151 130.374C127.527 141.307 128.78 149.606 130.912 155.27C126.775 159.09 122.073 161 116.808 161C112.797 161 109.474 159.814 106.842 157.443C104.209 155.072 102.893 151.845 102.893 147.762V97.3771C102.767 86.7074 101.702 78.8698 99.6961 73.8642C97.6903 68.8587 93.9921 66.356 88.6015 66.356C82.584 66.356 77.6949 70.2418 73.934 78.0136C70.1731 85.6536 68.2926 96.8502 68.2926 111.603C68.2926 126.093 68.4807 135.841 68.8568 140.846C69.2328 145.72 70.3611 150.594 72.2416 155.468C70.9879 156.785 69.1075 158.036 66.6002 159.222C64.2183 160.407 61.523 161 58.5143 161C54.252 161 50.8045 159.683 48.1718 157.048C45.5392 154.414 44.2229 150.923 44.2229 146.576V83.1508C44.0975 79.4625 43.6588 76.8281 42.9066 75.2474C42.1544 73.5349 40.9008 72.6787 39.1457 72.6787C36.7638 72.6787 35.1341 73.4691 34.2565 75.0498C32.7522 72.4153 32 69.7149 32 66.9487C32 62.997 33.2536 59.8356 35.7609 57.4646C38.3935 54.9618 42.0291 53.7104 46.6675 53.7104C52.4342 53.7104 56.9473 55.6863 60.2067 59.638C63.5915 63.458 65.3466 69.2539 65.472 77.0256C70.8626 61.3504 81.3304 53.5128 96.8754 53.5128C107.155 53.5128 114.74 56.8718 119.629 63.5897C124.643 70.176 127.151 80.1212 127.151 93.4253V130.374Z" fill="#E76F51"/>
<path d="M226.991 129.781C228.996 130.703 229.999 132.482 229.999 135.116C229.999 136.829 229.561 138.804 228.683 141.044C226.301 147.367 221.976 152.306 215.708 155.863C209.44 159.288 201.855 161 192.954 161C178.412 161 166.879 156.324 158.354 146.971C149.83 137.487 145.567 124.183 145.567 107.059C145.567 90.3298 149.704 77.2232 157.978 67.7391C166.252 58.2549 178.036 53.5128 193.331 53.5128C204.488 53.5128 213.639 56.1473 220.785 61.4163C227.931 66.5535 231.504 73.8643 231.504 83.3484C231.504 92.9643 227.805 100.407 220.409 105.676C213.013 110.945 203.109 113.579 190.698 113.579C182.675 113.579 176.469 113.316 172.082 112.789C172.959 124.249 175.717 132.482 180.355 137.487C185.119 142.493 191.638 144.995 199.912 144.995C206.556 144.995 212.198 143.612 216.836 140.846C221.475 138.08 224.859 134.392 226.991 129.781ZM192.39 62.4042C185.871 62.4042 180.794 66.0925 177.159 73.4691C173.523 80.7139 171.705 90.7908 171.705 103.7V103.897L178.099 104.095C185.871 104.095 192.328 102.383 197.468 98.9578C202.733 95.5329 205.365 88.9467 205.365 79.1991C205.365 68.0025 201.04 62.4042 192.39 62.4042Z" fill="#E76F51"/>
<path d="M291.563 161C276.52 161 264.861 156.324 256.587 146.971C248.438 137.619 244.364 124.315 244.364 107.059C244.364 90.3298 248.501 77.2232 256.775 67.7391C265.174 58.2549 277.021 53.5128 292.316 53.5128C303.473 53.5128 311.998 55.9497 317.89 60.8235C323.782 65.5656 326.728 71.5591 326.728 78.8039C326.728 84.0729 325.161 88.2881 322.027 91.4495C318.893 94.6109 314.818 96.1916 309.804 96.1916C307.296 96.1916 304.852 95.7964 302.47 95.006C300.213 94.2157 298.396 93.0302 297.017 91.4495C300.652 88.4198 302.47 83.4801 302.47 76.6305C302.47 67.1463 298.396 62.4042 290.247 62.4042C284.104 62.4042 279.278 65.9608 275.768 73.0739C272.257 80.187 270.502 90.1981 270.502 103.107C270.502 131.033 279.967 144.995 298.897 144.995C305.416 144.995 310.932 143.349 315.445 140.056C320.083 136.631 323.092 132.218 324.471 126.817C326.602 127.74 327.668 129.913 327.668 133.338C327.668 135.05 327.417 136.894 326.916 138.87C325.035 145.852 320.961 151.318 314.693 155.27C308.425 159.09 300.715 161 291.563 161Z" fill="#E76F51"/>
<path d="M374.25 56.4766C376.883 56.4766 381.02 56.4108 386.661 56.279C392.428 56.0156 395.687 55.818 396.439 55.6863L396.251 61.8115C396.126 63.7873 395.499 65.368 394.371 66.5536C393.243 67.6073 391.801 68.1342 390.046 68.1342H373.31V74.0618V130.769C373.31 137.751 376.193 141.241 381.96 141.241C383.464 141.241 384.969 141.044 386.473 140.649C388.103 140.122 389.106 139.397 389.482 138.475C391.111 140.714 391.926 143.415 391.926 146.576C391.926 150.66 390.109 153.953 386.473 156.456C382.838 158.958 378.011 160.21 371.994 160.21C364.723 160.21 359.081 157.773 355.07 152.899C351.058 148.025 349.052 141.373 349.052 132.943V68.1342H346.42C341.28 68.1342 337.519 68.3318 335.137 68.727L335.325 62.6018C335.45 60.6259 336.077 59.1111 337.205 58.0573C338.459 57.0035 339.963 56.4766 341.718 56.4766H349.052V43.2383C349.052 39.1549 350.368 35.9276 353.001 33.5566C355.634 31.1855 359.019 30 363.155 30C366.164 30 368.86 30.5928 371.241 31.7783C373.623 32.9638 375.504 34.281 376.883 35.73C375.253 42.448 374.187 49.3635 373.686 56.4766H374.25Z" fill="#E76F51"/>
<path d="M502.974 138.475C504.604 140.978 505.419 143.678 505.419 146.576C505.419 150.396 503.852 153.623 500.718 156.258C497.583 158.892 493.384 160.21 488.119 160.21C482.101 160.21 477.4 158.168 474.015 154.084C470.63 149.869 468.687 143.085 468.186 133.733C464.676 141.768 459.786 148.223 453.518 153.097C447.25 157.839 439.979 160.21 431.705 160.21C424.309 160.21 418.354 158.168 413.841 154.084C409.328 150.001 407.071 144.271 407.071 136.894C407.071 128.464 410.143 121.549 416.285 116.148C422.428 110.747 430.201 106.598 439.603 103.7C447.752 101.329 456.715 100.012 466.493 99.7481V94.8085C466.493 83.6119 465.24 75.3791 462.733 70.1101C460.225 64.8411 455.9 62.2066 449.757 62.2066C445.746 62.2066 442.486 63.458 439.979 65.9608C437.472 68.3318 436.218 72.0201 436.218 77.0256C436.218 84.007 438.475 88.8808 442.988 91.6471C441.609 93.096 439.728 94.2157 437.346 95.006C435.09 95.7964 432.645 96.1916 430.013 96.1916C424.246 96.1916 419.67 94.4791 416.285 91.0543C413.026 87.6295 411.396 83.2826 411.396 78.0136C411.396 70.2418 414.969 64.2484 422.115 60.0332C429.261 55.6863 438.976 53.5128 451.262 53.5128C465.177 53.5128 475.332 56.8718 481.725 63.5897C488.244 70.3077 491.503 81.2408 491.503 96.3891V130.769C491.503 137.751 493.572 141.241 497.709 141.241C498.586 141.241 499.527 141.044 500.529 140.649C501.532 140.122 502.347 139.397 502.974 138.475ZM442.988 143.612C446.623 143.612 450.322 142.032 454.082 138.87C457.843 135.709 460.977 131.428 463.485 126.027C465.992 120.495 467.246 114.501 467.246 108.047C457.342 108.047 449.945 109.496 445.056 112.394C441.546 114.238 438.725 116.741 436.594 119.902C434.588 123.063 433.586 126.686 433.586 130.769C433.586 134.326 434.338 137.355 435.842 139.858C437.472 142.361 439.854 143.612 442.988 143.612Z" fill="#E76F51"/>
<path d="M567.93 53.5128C575.076 53.5128 580.843 55.5546 585.23 59.638C589.743 63.5897 592 69.0563 592 76.0377C592 81.0432 590.558 85.1926 587.675 88.4857C584.792 91.7788 581.156 93.4912 576.768 93.6229C571.754 93.6229 568.056 92.2398 565.674 89.4736C567.053 87.1026 567.993 84.9291 568.494 82.9532C568.996 80.9774 569.247 78.6722 569.247 76.0377C569.247 72.6129 568.557 70.0442 567.178 68.3318C565.799 66.4877 563.731 65.5656 560.973 65.5656C556.334 65.5656 552.699 69.4515 550.066 77.2232C547.433 84.8632 546.117 96.3233 546.117 111.603C546.117 125.698 546.305 135.248 546.681 140.253C547.057 145.127 548.186 149.935 550.066 154.677C548.687 156.126 546.807 157.378 544.425 158.431C542.043 159.617 539.285 160.276 536.151 160.407C532.264 160.407 528.942 159.09 526.184 156.456C523.426 153.821 522.047 150.264 522.047 145.786V83.1508C522.047 79.4625 521.609 76.8281 520.731 75.2474C519.979 73.5349 518.725 72.6787 516.97 72.6787C514.588 72.6787 512.959 73.4691 512.081 75.0498C510.577 72.4153 509.824 69.7149 509.824 66.9487C509.824 62.997 511.078 59.8356 513.585 57.4646C516.218 54.9618 519.854 53.7104 524.492 53.7104C530.008 53.7104 534.396 55.4887 537.655 59.0452C540.915 62.6018 542.795 67.9367 543.296 75.0498C547.559 60.6918 555.77 53.5128 567.93 53.5128Z" fill="#E76F51"/>
<path d="M133.205 127.35C133.57 137.3 134.785 144.852 136.85 150.007C132.841 153.484 128.285 155.222 123.183 155.222C119.296 155.222 116.076 154.143 113.525 151.985C110.974 149.828 109.699 146.89 109.699 143.174V97.3194C109.577 87.609 108.544 80.4761 106.601 75.9206C104.657 71.3651 101.073 69.0873 95.8495 69.0873C90.0183 69.0873 85.2805 72.6238 81.636 79.6968C77.9915 86.65 76.1693 96.8399 76.1693 110.267C76.1693 123.454 76.3515 132.325 76.716 136.88C77.0804 141.316 78.1737 145.752 79.996 150.187C78.7812 151.386 76.9589 152.525 74.5293 153.604C72.2211 154.683 69.6092 155.222 66.6936 155.222C62.5632 155.222 59.2224 154.023 56.6713 151.626C54.1201 149.228 52.8446 146.051 52.8446 142.095V84.3722C52.7231 81.0155 52.2979 78.6179 51.569 77.1793C50.8401 75.6209 49.6253 74.8416 47.9245 74.8416C45.6163 74.8416 44.0371 75.5609 43.1867 76.9995C41.7289 74.6019 41 72.1443 41 69.6268C41 66.0303 42.2148 63.1532 44.6445 60.9953C47.1956 58.7176 50.7186 57.5787 55.2135 57.5787C60.8017 57.5787 65.1751 59.3769 68.3336 62.9734C71.6137 66.4499 73.3144 71.7247 73.4359 78.7977C78.6597 64.5318 88.8035 57.3989 103.867 57.3989C113.829 57.3989 121.179 60.4558 125.917 66.5698C130.776 72.5639 133.205 81.6149 133.205 93.723V127.35Z" fill="#F4A261"/>
<path d="M229.955 126.81C231.899 127.649 232.871 129.268 232.871 131.665C232.871 133.224 232.446 135.022 231.595 137.06C229.287 142.814 225.096 147.31 219.022 150.547C212.948 153.664 205.598 155.222 196.973 155.222C182.881 155.222 171.704 150.966 163.443 142.455C155.182 133.823 151.052 121.715 151.052 106.131C151.052 90.9058 155.061 78.9775 163.079 70.3461C171.097 61.7146 182.516 57.3989 197.337 57.3989C208.149 57.3989 217.017 59.7965 223.942 64.5918C230.866 69.2671 234.329 75.9206 234.329 84.552C234.329 93.3034 230.745 100.077 223.577 104.872C216.41 109.667 206.813 112.065 194.786 112.065C187.011 112.065 180.998 111.825 176.746 111.346C177.596 121.775 180.269 129.268 184.764 133.823C189.38 138.379 195.697 140.657 203.715 140.657C210.153 140.657 215.62 139.398 220.115 136.88C224.61 134.363 227.89 131.006 229.955 126.81ZM196.426 65.4909C190.109 65.4909 185.189 68.8476 181.666 75.5609C178.143 82.1544 176.381 91.3253 176.381 103.074V103.254L182.577 103.433C190.109 103.433 196.365 101.875 201.346 98.758C206.448 95.6411 208.999 89.647 208.999 80.7758C208.999 70.5858 204.808 65.4909 196.426 65.4909Z" fill="#F4A261"/>
<path d="M292.529 155.222C277.951 155.222 266.653 150.966 258.636 142.455C250.739 133.943 246.791 121.835 246.791 106.131C246.791 90.9058 250.8 78.9775 258.818 70.3461C266.957 61.7146 278.437 57.3989 293.258 57.3989C304.07 57.3989 312.331 59.6167 318.041 64.0523C323.75 68.368 326.605 73.8226 326.605 80.4161C326.605 85.2114 325.087 89.0476 322.05 91.9247C319.013 94.8019 315.064 96.2405 310.205 96.2405C307.775 96.2405 305.406 95.8808 303.098 95.1615C300.912 94.4423 299.15 93.3633 297.814 91.9247C301.337 89.1675 303.098 84.6719 303.098 78.4381C303.098 69.8066 299.15 65.4909 291.254 65.4909C285.301 65.4909 280.624 68.7277 277.222 75.2013C273.821 81.6749 272.12 90.7859 272.12 102.534C272.12 127.949 281.292 140.657 299.636 140.657C305.953 140.657 311.298 139.158 315.672 136.161C320.167 133.044 323.082 129.028 324.419 124.113C326.484 124.952 327.516 126.93 327.516 130.047C327.516 131.606 327.273 133.284 326.787 135.082C324.965 141.436 321.017 146.411 314.943 150.007C308.869 153.484 301.398 155.222 292.529 155.222Z" fill="#F4A261"/>
<path d="M372.657 60.0962C375.208 60.0962 379.217 60.0363 384.683 59.9164C390.272 59.6766 393.43 59.4968 394.159 59.3769L393.977 64.9514C393.855 66.7496 393.248 68.1882 392.155 69.2671C391.061 70.2262 389.664 70.7057 387.964 70.7057H371.746V76.1004V127.709C371.746 134.063 374.54 137.24 380.128 137.24C381.586 137.24 383.043 137.06 384.501 136.701C386.081 136.221 387.052 135.562 387.417 134.722C388.996 136.76 389.786 139.218 389.786 142.095C389.786 145.812 388.024 148.809 384.501 151.086C380.978 153.364 376.301 154.503 370.47 154.503C363.424 154.503 357.957 152.285 354.07 147.85C350.182 143.414 348.239 137.36 348.239 129.687V70.7057H345.688C340.707 70.7057 337.062 70.8855 334.754 71.2452L334.936 65.6707C335.058 63.8725 335.665 62.4938 336.759 61.5348C337.973 60.5757 339.431 60.0962 341.132 60.0962H348.239V48.0481C348.239 44.3318 349.514 41.3947 352.065 39.2368C354.616 37.0789 357.897 36 361.905 36C364.821 36 367.433 36.5395 369.741 37.6184C372.049 38.6973 373.872 39.8962 375.208 41.2149C373.629 47.3288 372.596 53.6226 372.11 60.0962H372.657Z" fill="#F4A261"/>
<path d="M497.396 134.722C498.976 137 499.765 139.458 499.765 142.095C499.765 145.572 498.247 148.509 495.21 150.906C492.173 153.304 488.103 154.503 483.001 154.503C477.169 154.503 472.614 152.645 469.334 148.928C466.054 145.092 464.171 138.918 463.685 130.407C460.283 137.72 455.545 143.594 449.471 148.029C443.397 152.345 436.351 154.503 428.333 154.503C421.166 154.503 415.395 152.645 411.022 148.928C406.649 145.212 404.462 139.997 404.462 133.284C404.462 125.611 407.438 119.318 413.391 114.403C419.344 109.487 426.876 105.711 435.987 103.074C443.883 100.916 452.569 99.7171 462.045 99.4773V94.9817C462.045 84.7918 460.83 77.2992 458.4 72.5039C455.971 67.7087 451.78 65.311 445.827 65.311C441.939 65.311 438.781 66.4499 436.351 68.7277C433.922 70.8855 432.707 74.2422 432.707 78.7977C432.707 85.1514 434.893 89.5871 439.267 92.1046C437.93 93.4233 436.108 94.4423 433.8 95.1615C431.613 95.8808 429.244 96.2405 426.693 96.2405C421.105 96.2405 416.671 94.682 413.391 91.5651C410.232 88.4482 408.653 84.4921 408.653 79.6968C408.653 72.6238 412.115 67.1692 419.04 63.333C425.964 59.3769 435.379 57.3989 447.285 57.3989C460.769 57.3989 470.609 60.4558 476.805 66.5698C483.122 72.6838 486.281 82.6339 486.281 96.4203V127.709C486.281 134.063 488.285 137.24 492.294 137.24C493.144 137.24 494.056 137.06 495.027 136.701C495.999 136.221 496.789 135.562 497.396 134.722ZM439.267 139.398C442.79 139.398 446.374 137.959 450.018 135.082C453.663 132.205 456.7 128.309 459.129 123.394C461.559 118.359 462.774 112.904 462.774 107.03C453.177 107.03 446.009 108.349 441.271 110.986C437.87 112.664 435.136 114.942 433.071 117.819C431.127 120.696 430.156 123.993 430.156 127.709C430.156 130.946 430.884 133.703 432.342 135.981C433.922 138.259 436.23 139.398 439.267 139.398Z" fill="#F4A261"/>
<path d="M560.342 57.3989C567.267 57.3989 572.855 59.257 577.107 62.9734C581.48 66.5698 583.667 71.5449 583.667 77.8986C583.667 82.4541 582.27 86.2304 579.476 89.2274C576.681 92.2244 573.158 93.7829 568.907 93.9028C564.047 93.9028 560.463 92.644 558.155 90.1265C559.492 87.9687 560.403 85.9906 560.889 84.1924C561.375 82.3942 561.618 80.2962 561.618 77.8986C561.618 74.7817 560.949 72.444 559.613 70.8855C558.277 69.2072 556.272 68.368 553.6 68.368C549.105 68.368 545.582 71.9045 543.031 78.9775C540.48 85.9307 539.204 96.3604 539.204 110.267C539.204 123.094 539.386 131.785 539.751 136.341C540.115 140.776 541.208 145.152 543.031 149.468C541.694 150.787 539.872 151.925 537.564 152.885C535.256 153.963 532.583 154.563 529.546 154.683C525.78 154.683 522.561 153.484 519.888 151.086C517.216 148.689 515.879 145.452 515.879 141.376V84.3722C515.879 81.0155 515.454 78.6179 514.604 77.1793C513.875 75.6209 512.66 74.8416 510.959 74.8416C508.651 74.8416 507.072 75.5609 506.221 76.9995C504.764 74.6019 504.035 72.1443 504.035 69.6268C504.035 66.0303 505.25 63.1532 507.679 60.9953C510.23 58.7176 513.753 57.5787 518.248 57.5787C523.593 57.5787 527.845 59.1971 531.004 62.4339C534.162 65.6707 535.985 70.5259 536.471 76.9995C540.601 63.9324 548.558 57.3989 560.342 57.3989Z" fill="#F4A261"/>
</svg>
